<svg xmlns="http://www.w3.org/2000/svg" viewBox="0 0 331.17 331.16"><defs><style>.cls-1{fill:#fdbc21;}.cls-2{fill:#af1b08;}.cls-3{fill:#e5310e;}</style></defs><g id="Layer_2" data-name="Layer 2"><g id="_12" data-name="12"><rect class="cls-1" x="160.5" y="49.21" width="10.18" height="28.08"/><path class="cls-2" d="M175.77,41.94a10.18,10.18,0,0,1-10.18,10.18h0a10.18,10.18,0,0,1-10.18-10.18V10.18A10.18,10.18,0,0,1,165.59,0h0a10.18,10.18,0,0,1,10.18,10.18Z"/><rect class="cls-1" x="88.14" y="79.18" width="10.18" height="28.07" transform="translate(-38.6 93.24) rotate(-45.01)"/><path class="cls-2" d="M85.35,71a10.16,10.16,0,0,1,0,14.39h0a10.18,10.18,0,0,1-14.39,0L48.5,62.89a10.19,10.19,0,0,1,0-14.4h0a10.18,10.18,0,0,1,14.4,0Z"/><rect class="cls-1" x="49.21" y="160.48" width="28.08" height="10.18"/><path class="cls-2" d="M41.94,155.4a10.19,10.19,0,0,1,10.18,10.18h0a10.19,10.19,0,0,1-10.18,10.18H10.18A10.19,10.19,0,0,1,0,165.57H0A10.17,10.17,0,0,1,10.18,155.4Z"/><polygon class="cls-1" points="99.54 224.4 106.75 231.6 86.89 251.45 79.69 244.26 99.54 224.4"/><path class="cls-2" d="M71,245.81a10.16,10.16,0,0,1,14.39,0h0a10.18,10.18,0,0,1,0,14.39L62.89,282.67a10.17,10.17,0,0,1-14.39,0h0a10.16,10.16,0,0,1,0-14.39Z"/><polygon class="cls-1" points="160.47 253.87 170.66 253.87 170.66 281.95 160.49 281.95 160.47 253.87"/><path class="cls-2" d="M155.4,289.23A10.19,10.19,0,0,1,165.58,279h0a10.2,10.2,0,0,1,10.18,10.18V321a10.19,10.19,0,0,1-10.19,10.16h0A10.16,10.16,0,0,1,155.4,321Z"/><polygon class="cls-1" points="224.4 231.63 231.6 224.41 251.45 244.28 244.26 251.47 224.4 231.63"/><path class="cls-2" d="M245.81,260.21a10.18,10.18,0,0,1,0-14.4h0a10.18,10.18,0,0,1,14.39,0l22.47,22.46a10.18,10.18,0,0,1,0,14.4h0a10.16,10.16,0,0,1-14.39,0Z"/><polygon class="cls-1" points="253.87 170.69 253.87 160.5 281.95 160.51 281.95 170.68 253.87 170.69"/><path class="cls-2" d="M289.23,175.76a10.16,10.16,0,0,1-10.18-10.18h0a10.17,10.17,0,0,1,10.17-10.18H321a10.2,10.2,0,0,1,10.18,10.19h0A10.19,10.19,0,0,1,321,175.77Z"/><polygon class="cls-1" points="231.62 106.76 224.42 99.55 244.28 79.71 251.47 86.9 231.62 106.76"/><path class="cls-2" d="M260.21,85.35a10.18,10.18,0,0,1-14.4,0h0a10.18,10.18,0,0,1,0-14.39l22.47-22.47a10.2,10.2,0,0,1,14.4,0h0a10.16,10.16,0,0,1,0,14.39Z"/><rect class="cls-2" x="160.49" y="78.66" width="10.18" height="65.72"/><rect class="cls-2" x="122.27" y="94.5" width="10.18" height="65.72" transform="translate(-52.75 127.4) rotate(-45.01)"/><rect class="cls-2" x="78.67" y="160.49" width="65.73" height="10.18"/><polygon class="cls-2" points="147.01 176.97 154.2 184.17 107.73 230.65 100.53 223.44 147.01 176.97"/><rect class="cls-2" x="160.5" y="186.78" width="10.18" height="65.72"/><rect class="cls-2" x="198.72" y="170.94" width="10.18" height="65.72" transform="translate(-84.42 203.89) rotate(-45.02)"/><rect class="cls-2" x="186.79" y="160.49" width="65.72" height="10.18"/><polygon class="cls-2" points="184.17 154.19 176.98 146.99 223.44 100.52 230.64 107.72 184.17 154.19"/><path class="cls-3" d="M189.27,165.58a23.69,23.69,0,1,1-23.69-23.69A23.69,23.69,0,0,1,189.27,165.58Z"/><path class="cls-1" d="M175.76,165.58a10.18,10.18,0,1,1-10.18-10.18A10.18,10.18,0,0,1,175.76,165.58Z"/><path class="cls-3" d="M165.58,61.45A104.13,104.13,0,1,0,269.71,165.58,104.13,104.13,0,0,0,165.58,61.45Zm0,186.43a82.3,82.3,0,1,1,82.3-82.3A82.3,82.3,0,0,1,165.58,247.88Z"/><path class="cls-1" d="M171.28,74.89a5.7,5.7,0,1,1-5.69-5.69A5.7,5.7,0,0,1,171.28,74.89Z"/><path class="cls-1" d="M136.14,79.62a5.69,5.69,0,1,1-7.43-3.08A5.68,5.68,0,0,1,136.14,79.62Z"/><path class="cls-1" d="M105.48,97.43a5.69,5.69,0,1,1-8,0A5.68,5.68,0,0,1,105.48,97.43Z"/><path class="cls-1" d="M84,125.62a5.69,5.69,0,1,1-7.43,3.08A5.67,5.67,0,0,1,84,125.62Z"/><path class="cls-1" d="M74.89,159.89a5.69,5.69,0,1,1-5.68,5.69A5.69,5.69,0,0,1,74.89,159.89Z"/><path class="cls-1" d="M79.62,195a5.69,5.69,0,1,1-3.08,7.43A5.68,5.68,0,0,1,79.62,195Z"/><path class="cls-1" d="M97.44,225.69a5.69,5.69,0,1,1,0,8A5.68,5.68,0,0,1,97.44,225.69Z"/><path class="cls-1" d="M125.63,247.2a5.68,5.68,0,1,1,3.07,7.43A5.65,5.65,0,0,1,125.63,247.2Z"/><path class="cls-1" d="M159.9,256.27a5.69,5.69,0,1,1,5.68,5.69A5.66,5.66,0,0,1,159.9,256.27Z"/><path class="cls-1" d="M195,251.54a5.69,5.69,0,1,1,7.42,3.09A5.65,5.65,0,0,1,195,251.54Z"/><path class="cls-1" d="M225.69,233.73a5.69,5.69,0,1,1,8,0A5.68,5.68,0,0,1,225.69,233.73Z"/><path class="cls-1" d="M247.19,205.54a5.69,5.69,0,1,1,7.44-3.07A5.66,5.66,0,0,1,247.19,205.54Z"/><path class="cls-1" d="M256.27,171.27a5.69,5.69,0,1,1,5.69-5.69A5.66,5.66,0,0,1,256.27,171.27Z"/><path class="cls-1" d="M251.54,136.13a5.68,5.68,0,1,1,3.09-7.43A5.65,5.65,0,0,1,251.54,136.13Z"/><path class="cls-1" d="M233.73,105.48a5.69,5.69,0,1,1,0-8A5.66,5.66,0,0,1,233.73,105.48Z"/><path class="cls-1" d="M205.54,84a5.69,5.69,0,1,1-3.06-7.44A5.66,5.66,0,0,1,205.54,84Z"/></g></g></svg>